<?xml version="1.0" standalone="no"?>
<svg xmlns="http://www.w3.org/2000/svg" viewBox="0 0 261.2360615384615 105.11606153846154" width="261.2360615384615" height="105.11606153846154"><rect fill="#000000" width="261.2360615384615" height="105.11606153846154" x="0" y="0"></rect><g fill="white" color="white" transform="translate(168.12 22.14) scale(0.8111607)"><svg width="100.0" height="75.0" x="0.0" y="0.0" viewBox="0 0 100 75"><polygon style="" points="50.244,35.803 100,12.244 100,0 0,0 0,12.207 " fill="currentColor"></polygon><polygon style="" points="50.269,49.621 0,26.001 0,75 100,75 100,26.074 " fill="currentColor"></polygon></svg></g><path fill="white" fill-rule="nonzero" d="M4.68 28.28L0.16 28.28Q0 28.28 0 28.08L0 28.08L0.08 0.60Q0.08 0.44 0.24 0.44L0.24 0.44L8.32 0.44Q10.48 0.44 12.30 1.50Q14.12 2.56 15.20 4.34Q16.28 6.12 16.28 8.36L16.28 8.36Q16.28 9.84 15.84 11.02Q15.40 12.20 14.80 13.02Q14.20 13.84 13.72 14.24L13.72 14.24Q15.88 16.64 15.88 19.88L15.88 19.88L15.92 28.08Q15.92 28.28 15.72 28.28L15.72 28.28L11.20 28.28Q11.04 28.28 11.04 28.16L11.04 28.16L11.04 19.88Q11.04 18.44 10.02 17.38Q9 16.32 7.52 16.32L7.52 16.32L4.88 16.32L4.84 28.08Q4.84 28.28 4.68 28.28L4.68 28.28ZM4.88 5.24L4.88 11.52L8.32 11.52Q9.56 11.52 10.52 10.60Q11.48 9.68 11.48 8.36L11.48 8.36Q11.48 7.08 10.54 6.16Q9.60 5.24 8.32 5.24L8.32 5.24L4.88 5.24ZM26.48 28.68L26.48 28.68Q24.32 28.68 22.54 27.58Q20.76 26.48 19.68 24.66Q18.60 22.84 18.60 20.64L18.60 20.64L18.64 7.96Q18.64 5.76 19.70 3.96Q20.76 2.16 22.56 1.08Q24.36 0 26.48 0L26.48 0Q28.64 0 30.40 1.08Q32.16 2.16 33.22 3.96Q34.28 5.76 34.28 7.96L34.28 7.96L34.32 20.64Q34.32 22.84 33.26 24.66Q32.20 26.48 30.42 27.58Q28.64 28.68 26.48 28.68ZM26.48 23.84L26.48 23.84Q27.68 23.84 28.58 22.86Q29.48 21.88 29.48 20.64L29.48 20.64L29.44 7.96Q29.44 6.64 28.60 5.72Q27.76 4.80 26.48 4.80L26.48 4.80Q25.24 4.80 24.36 5.70Q23.48 6.60 23.48 7.96L23.48 7.96L23.48 20.64Q23.48 21.96 24.36 22.90Q25.24 23.84 26.48 23.84ZM42.04 28.28L37.52 28.28Q37.36 28.28 37.36 28.08L37.36 28.08L37.44 0.60Q37.44 0.44 37.60 0.44L37.60 0.44L42.48 0.44Q42.64 0.44 42.76 0.60L42.76 0.60L46.40 5.88L50.04 0.60Q50.16 0.44 50.32 0.44L50.32 0.44L55.24 0.44Q55.40 0.44 55.40 0.60L55.40 0.60L55.48 28.08Q55.48 28.28 55.32 28.28L55.32 28.28L50.80 28.28Q50.64 28.28 50.64 28.08L50.64 28.08L50.60 7.68L46.40 13.76L42.24 7.68L42.20 28.08Q42.20 28.28 42.04 28.28L42.04 28.28ZM57.48 28.08L57.48 28.08L62.44 0.60Q62.48 0.44 62.64 0.44L62.64 0.44L68.44 0.44Q68.60 0.44 68.64 0.60L68.64 0.60L73.40 28.08Q73.44 28.28 73.24 28.28L73.24 28.28L68.80 28.28Q68.64 28.28 68.60 28.08L68.60 28.08L68.16 25.16L62.72 25.16L62.28 28.08Q62.24 28.28 62.08 28.28L62.08 28.28L57.64 28.28Q57.48 28.28 57.48 28.08ZM65.32 9.64L63.52 20.88L67.36 20.88L65.72 9.64L65.48 8.16L65.32 9.64ZM80.28 28.28L76.28 28.28Q75.96 28.28 75.96 28L75.96 28L75.92 0.76Q75.92 0.44 76.24 0.44L76.24 0.44L79.84 0.44L86.60 16.20L86.40 0.76Q86.40 0.44 86.76 0.44L86.76 0.44L90.72 0.44Q90.96 0.44 90.96 0.76L90.96 0.76L91 28.04Q91 28.28 90.80 28.28L90.80 28.28L87.28 28.28L80.36 13.56L80.64 27.96Q80.64 28.28 80.28 28.28L80.28 28.28Z" transform="translate(12 12) scale(1.551)"></path><path fill="white" fill-rule="nonzero" d="M4.36 28.24L0.36 28.24Q0.04 28.24 0.04 27.96L0.04 27.96L0 0.72Q0 0.40 0.32 0.40L0.32 0.40L3.92 0.40L10.68 16.16L10.48 0.72Q10.48 0.40 10.84 0.40L10.84 0.40L14.80 0.40Q15.04 0.40 15.04 0.72L15.04 0.72L15.08 28.00Q15.08 28.24 14.88 28.24L14.88 28.24L11.36 28.24L4.44 13.52L4.72 27.92Q4.72 28.24 4.36 28.24L4.36 28.24ZM25.92 28.64L25.92 28.64Q23.80 28.64 22.00 27.54Q20.20 26.44 19.14 24.60Q18.08 22.76 18.08 20.56L18.08 20.56L18.16 0.56Q18.16 0.40 18.32 0.40L18.32 0.40L22.80 0.40Q22.96 0.40 22.96 0.56L22.96 0.56L22.96 20.56Q22.96 21.92 23.82 22.86Q24.68 23.80 25.92 23.80L25.92 23.80Q27.20 23.80 28.06 22.86Q28.92 21.92 28.92 20.56L28.92 20.56L28.92 0.56Q28.92 0.40 29.08 0.40L29.08 0.40L33.56 0.40Q33.72 0.40 33.72 0.56L33.72 0.56L33.80 20.56Q33.80 22.80 32.74 24.64Q31.68 26.48 29.90 27.56Q28.12 28.64 25.92 28.64ZM41.64 28.24L37.12 28.24Q36.96 28.24 36.96 28.04L36.96 28.04L37.04 0.56Q37.04 0.40 37.20 0.40L37.20 0.40L42.08 0.40Q42.24 0.40 42.36 0.56L42.36 0.56L46 5.84L49.64 0.56Q49.76 0.40 49.92 0.40L49.92 0.40L54.84 0.40Q55 0.40 55 0.56L55 0.56L55.08 28.04Q55.08 28.24 54.92 28.24L54.92 28.24L50.40 28.24Q50.24 28.24 50.24 28.04L50.24 28.04L50.20 7.64L46 13.72L41.84 7.64L41.80 28.04Q41.80 28.24 41.64 28.24L41.64 28.24ZM71.52 28.24L58.60 28.24Q58.44 28.24 58.44 28.04L58.44 28.04L58.48 0.56Q58.48 0.40 58.64 0.40L58.64 0.40L71.48 0.40Q71.64 0.40 71.64 0.60L71.64 0.60L71.64 5.08Q71.64 5.24 71.48 5.24L71.48 5.24L63.28 5.24L63.28 11.48L71.48 11.48Q71.64 11.48 71.64 11.64L71.64 11.64L71.68 16.16Q71.68 16.32 71.52 16.32L71.52 16.32L63.28 16.32L63.28 23.32L71.52 23.32Q71.68 23.32 71.68 23.52L71.68 23.52L71.68 28.08Q71.68 28.24 71.52 28.24L71.52 28.24ZM79.92 28.24L75.40 28.24Q75.24 28.24 75.24 28.04L75.24 28.04L75.32 0.56Q75.32 0.40 75.48 0.40L75.48 0.40L83.56 0.40Q85.72 0.40 87.54 1.46Q89.36 2.52 90.44 4.30Q91.52 6.08 91.52 8.32L91.52 8.32Q91.52 9.80 91.08 10.98Q90.64 12.16 90.04 12.98Q89.44 13.80 88.96 14.20L88.96 14.20Q91.12 16.60 91.12 19.84L91.12 19.84L91.16 28.04Q91.16 28.24 90.96 28.24L90.96 28.24L86.44 28.24Q86.28 28.24 86.28 28.12L86.28 28.12L86.28 19.84Q86.28 18.40 85.26 17.34Q84.24 16.28 82.76 16.28L82.76 16.28L80.12 16.28L80.08 28.04Q80.08 28.24 79.92 28.24L79.92 28.24ZM80.12 5.20L80.12 11.48L83.56 11.48Q84.80 11.48 85.76 10.56Q86.72 9.64 86.72 8.32L86.72 8.32Q86.72 7.04 85.78 6.12Q84.84 5.20 83.56 5.20L83.56 5.20L80.12 5.20ZM93.16 28.04L93.16 28.04L98.12 0.56Q98.16 0.40 98.32 0.40L98.32 0.40L104.12 0.40Q104.28 0.40 104.32 0.56L104.32 0.56L109.08 28.04Q109.12 28.24 108.92 28.24L108.92 28.24L104.48 28.24Q104.32 28.24 104.28 28.04L104.28 28.04L103.84 25.12L98.40 25.12L97.96 28.04Q97.92 28.24 97.76 28.24L97.76 28.24L93.32 28.24Q93.16 28.24 93.16 28.04ZM101 9.60L99.20 20.84L103.04 20.84L101.40 9.60L101.16 8.12L101 9.60ZM124.68 28.24L111.76 28.24Q111.60 28.24 111.60 28.04L111.60 28.04L111.64 0.60Q111.64 0.40 111.84 0.40L111.84 0.40L116.28 0.40Q116.48 0.40 116.48 0.60L116.48 0.60L116.44 23.32L124.68 23.32Q124.88 23.32 124.88 23.52L124.88 23.52L124.88 28.04Q124.88 28.24 124.68 28.24L124.68 28.24ZM133.28 28.64L133.28 28.64Q131.12 28.64 129.34 27.54Q127.56 26.44 126.50 24.62Q125.44 22.80 125.44 20.60L125.44 20.60L125.44 18.76Q125.44 18.56 125.64 18.56L125.64 18.56L130.12 18.56Q130.28 18.56 130.28 18.76L130.28 18.76L130.28 20.60Q130.28 21.92 131.16 22.86Q132.04 23.80 133.28 23.80L133.28 23.80Q134.52 23.80 135.40 22.84Q136.28 21.88 136.28 20.60L136.28 20.60Q136.28 19.12 134.36 18.04L134.36 18.04Q133.72 17.68 132.36 16.92Q131 16.16 129.80 15.48L129.80 15.48Q127.60 14.20 126.54 12.26Q125.48 10.32 125.48 7.88L125.48 7.88Q125.48 5.64 126.56 3.86Q127.64 2.08 129.42 1.04Q131.20 0 133.28 0L133.28 0Q135.40 0 137.18 1.06Q138.96 2.12 140.02 3.90Q141.08 5.68 141.08 7.88L141.08 7.88L141.08 11.16Q141.08 11.32 140.92 11.32L140.92 11.32L136.44 11.32Q136.28 11.32 136.28 11.16L136.28 11.16L136.24 7.88Q136.24 6.48 135.36 5.60Q134.48 4.72 133.28 4.72L133.28 4.72Q132.04 4.72 131.16 5.66Q130.28 6.60 130.28 7.88L130.28 7.88Q130.28 9.20 130.84 10.08Q131.40 10.96 132.88 11.76L132.88 11.76Q133.08 11.88 133.66 12.18Q134.24 12.48 134.92 12.86Q135.60 13.24 136.14 13.52Q136.68 13.80 136.80 13.88L136.80 13.88Q138.80 15.00 139.96 16.62Q141.12 18.24 141.12 20.60L141.12 20.60Q141.12 22.88 140.06 24.70Q139 26.52 137.22 27.58Q135.44 28.64 133.28 28.64Z" transform="translate(12 64.477) scale(1)"></path></svg>